<svg xmlns="http://www.w3.org/2000/svg" viewBox="0 0 800 200" font-family="Arial">
  <defs>
    <marker id="arrow" markerWidth="10" markerHeight="7" refX="9" refY="3.5" orient="auto">
      <polygon points="0 0, 10 3.5, 0 7" fill="#555"/>
    </marker>
  </defs>
  <rect x="10" y="60" width="100" height="60" rx="8" fill="#4CAF50" opacity="0.85"/>
  <text x="60" y="85" text-anchor="middle" fill="white" font-size="13" font-weight="bold">Image</text>
  <text x="60" y="102" text-anchor="middle" fill="white" font-size="10">224x224</text>
  <line x1="110" y1="90" x2="155" y2="90" stroke="#555" stroke-width="2" marker-end="url(#arrow)"/>
  <rect x="160" y="50" width="130" height="80" rx="8" fill="#2196F3" opacity="0.85"/>
  <text x="225" y="78" text-anchor="middle" fill="white" font-size="13" font-weight="bold">CLIP ViT-B/32</text>
  <text x="225" y="95" text-anchor="middle" fill="white" font-size="10">151M params</text>
  <text x="225" y="112" text-anchor="middle" fill="white" font-size="10">frozen</text>
  <line x1="290" y1="90" x2="335" y2="90" stroke="#555" stroke-width="2" marker-end="url(#arrow)"/>
  <text x="313" y="80" text-anchor="middle" fill="#555" font-size="9">512-d</text>
  <rect x="340" y="50" width="140" height="80" rx="8" fill="#FF9800" opacity="0.85"/>
  <text x="410" y="78" text-anchor="middle" fill="white" font-size="13" font-weight="bold">ProjectionHead</text>
  <text x="410" y="95" text-anchor="middle" fill="white" font-size="10">62.9M params</text>
  <text x="410" y="112" text-anchor="middle" fill="white" font-size="10">trained / LoRA</text>
  <line x1="480" y1="90" x2="525" y2="90" stroke="#555" stroke-width="2" marker-end="url(#arrow)"/>
  <text x="503" y="80" text-anchor="middle" fill="#555" font-size="9">10x768</text>
  <rect x="530" y="50" width="130" height="80" rx="8" fill="#9C27B0" opacity="0.85"/>
  <text x="595" y="78" text-anchor="middle" fill="white" font-size="13" font-weight="bold">GPT-2</text>
  <text x="595" y="95" text-anchor="middle" fill="white" font-size="10">124M params</text>
  <text x="595" y="112" text-anchor="middle" fill="white" font-size="10">frozen / FT-4L</text>
  <line x1="660" y1="90" x2="705" y2="90" stroke="#555" stroke-width="2" marker-end="url(#arrow)"/>
  <rect x="710" y="60" width="80" height="60" rx="8" fill="#F44336" opacity="0.85"/>
  <text x="750" y="85" text-anchor="middle" fill="white" font-size="12" font-weight="bold">Caption</text>
  <text x="750" y="102" text-anchor="middle" fill="white" font-size="9">text output</text>
  <text x="400" y="170" text-anchor="middle" fill="#333" font-size="11">prefix conditioning: [visual prefix tokens] + [caption tokens] → GPT-2 decoder</text>
</svg>
